<svg width="139" height="14" viewBox="0 0 139 14" fill="none" xmlns="http://www.w3.org/2000/svg">
<path d="M13.2282 8.04016L13.6524 5.73494H6.20915L5.78492 8.04016H13.2282ZM12.7461 13.8126L13.286 10.8889H3.5288L4.93647 3.11111H14.6744L15.1951 0.187416H2.46823L0 13.8126H12.7461Z" fill="#5A5A5A"/>
<path d="M32.526 13.8126L26.8954 0.937082C26.6447 0.374833 26.2783 0 25.6227 0C24.9671 0 24.4464 0.374833 24.0029 0.937082L13.7058 13.8126H17.1189L24.755 4.12316L26.5676 8.32129H23.4051L21.6118 10.589H27.5317L28.9201 13.8126H32.526Z" fill="#5A5A5A"/>
<path d="M44.426 13.8126C47.9355 13.8126 49.8059 11.6386 49.8059 8.88353C49.8059 6.76573 48.4368 5.73494 45.8915 5.73494H39.5859C38.8724 5.73494 38.4289 5.36011 38.4289 4.66667C38.4289 3.71084 39.0845 3.11111 40.068 3.11111H50.2109L50.7315 0.187416H40.5886C37.2912 0.187416 35.3051 2.249 35.3051 4.76038C35.3051 6.69076 36.6934 8.04016 39.1231 8.04016H45.4672C46.4121 8.04016 46.9328 8.47122 46.9328 9.22088C46.9328 10.2329 46.1807 10.8889 44.9659 10.8889H34.3795L33.8396 13.8126H44.426Z" fill="#5A5A5A"/>
<path d="M60.2152 13.8126L61.1215 8.86479L70.011 0.187416H66.0965L60.1188 6.20348L56.3007 0.187416H52.367L58.1133 8.86479L57.207 13.8126H60.2152Z" fill="#5A5A5A"/>
<path d="M79.4725 13.8126C82.6157 13.8126 84.9489 11.8072 84.9489 8.97724C84.9489 7.81526 84.3511 6.9344 83.522 6.55957C84.544 6.12851 85.7202 5.13521 85.7202 3.16734C85.7202 1.19946 84.1197 0.187416 81.5744 0.187416H71.2579L68.7897 13.8126H79.4725ZM80.4174 8.04016C81.3623 8.04016 81.8636 8.47122 81.8636 9.20214C81.8636 10.3641 80.8802 10.9076 79.4532 10.9076H72.3185L73.7454 3.09237H80.6488C81.8058 3.09237 82.5 3.35475 82.5 4.17939C82.5 5.17269 81.9408 5.73494 80.6295 5.73494H74.9988L74.5746 8.04016H80.4174Z" fill="#5A5A5A"/>
<path d="M102.804 13.8126L97.1732 0.937082C96.9225 0.374833 96.5561 0 95.9005 0C95.2449 0 94.7242 0.374833 94.2807 0.937082L83.9835 13.8126H87.3967L95.0328 4.12316L96.8454 8.32129H93.6829L91.8896 10.589H97.8095L99.1979 13.8126H102.804Z" fill="#5A5A5A"/>
<path d="M116.169 13.4378C116.497 13.8313 116.825 14 117.288 14C118.175 14 118.927 13.344 119.12 12.257L121.318 0.0562253H118.445L116.709 9.38956L109.189 0.56225C108.842 0.149933 108.514 0.0187414 108.07 0.0187414C107.145 0.0187414 106.451 0.674699 106.258 1.74297L104.059 13.8126H106.913L108.591 4.47925L116.169 13.4378Z" fill="#5A5A5A"/>
<path d="M136.802 13.8126L129.436 6.91566L139 0.187416H134.43L127.064 5.51004C126.408 5.97858 126.042 6.6158 126.042 7.10308C126.042 7.40295 126.138 7.72155 126.466 8.04016L132.386 13.8126H136.802ZM124.017 13.8126L126.485 0.187416H123.477L121.009 13.8126H124.017Z" fill="#5A5A5A"/>
</svg>
